Coordinates
version=1
nRows=19
nColumns=18
inDegrees=yes

Units are S.I. units (second, meters, Newtons, ...)
If the header above contains a line with 'inDegrees', this indicates whether rotational values are in degrees (yes) or radians (no).

endheader
time	ground_thorax_rot_x	ground_thorax_rot_y	ground_thorax_rot_z	ground_thorax_tx	ground_thorax_ty	ground_thorax_tz	clav_prot	clav_elev	scapula_abduction	scapula_elevation	scapula_upward_rot	scapula_winging	plane_elv	shoulder_elv	axial_rot	elbow_flexion	pro_sup
      1.96000000	      0.24538894	     -4.20721955	    -10.41260599	      0.00000000	      0.00000000	      0.00000000	    -43.87957590	      9.60233644	    -17.30311671	     -2.54309146	     60.09437949	    -13.54423395	     -1.53498080	     73.35377333	     -5.61221447	      0.00000000	     34.32000000
      1.97000000	      0.05766175	     -4.27905078	    -10.40808762	      0.00000000	      0.00000000	      0.00000000	    -43.91496523	      9.59247346	    -17.29135423	     -2.55347064	     60.17417154	    -13.56491869	     -1.52677703	     73.49699758	     -5.61262723	      0.00000000	     34.32000000
      1.98000000	     -0.41078708	     -4.18066314	    -10.67772151	      0.00000000	      0.00000000	      0.00000000	    -43.83850846	      8.78539771	    -17.15724424	     -3.08538757	     59.84325531	    -13.27901160	     -1.70212052	     74.49112710	     -5.02161440	      0.00000000	     34.32000000
      1.99000000	      0.07695651	     -4.85359540	    -10.53336441	      0.00000000	      0.00000000	      0.00000000	    -43.55890438	      9.38255289	    -15.99771492	     -2.67708873	     61.01419966	    -13.30163135	     -2.38894215	     74.82560567	     -5.55255265	      0.00000000	     34.32000000
      2.00000000	     -0.13059104	     -4.91791371	    -10.57405681	      0.00000000	      0.00000000	      0.00000000	    -43.59396384	      9.40587529	    -16.00033249	     -2.66465950	     61.08999530	    -13.33038035	     -2.36276448	     74.96810795	     -5.55565155	      0.00000000	     34.32000000
      2.01000000	      0.05406556	     -5.02904707	    -10.58587246	      0.00000000	      0.00000000	      0.00000000	    -43.66201240	      9.47910069	    -15.79205698	     -2.62380895	     61.51790420	    -13.39722741	     -2.32483972	     75.45030328	     -5.98755691	      0.00000000	     34.32000000
      2.02000000	     -0.09801632	     -5.07223373	    -10.58326515	      0.00000000	      0.00000000	      0.00000000	    -43.69629656	      9.48177345	    -15.79358883	     -2.62491869	     61.58473152	    -13.41953322	     -2.29371849	     75.57439576	     -5.99103671	      0.00000000	     34.32000000
      2.03000000	      0.04674094	     -5.03508594	    -10.65806362	      0.00000000	      0.00000000	      0.00000000	    -43.93844816	      9.49156464	    -15.93049642	     -2.63809250	     61.89372566	    -13.57400629	     -1.81063692	     75.94662232	     -5.80507206	      0.00000000	     34.32000000
      2.04000000	      0.04131842	     -5.26773807	    -10.63030741	      0.00000000	      0.00000000	      0.00000000	    -43.89221518	      9.65093533	    -15.72300009	     -2.52853160	     62.13282265	    -13.59095862	     -1.69633891	     76.24753421	     -6.02036355	      0.00000000	     34.32000000
      2.05000000	     -0.17904453	     -5.32981312	    -10.71298152	      0.00000000	      0.00000000	      0.00000000	    -43.91566862	      9.68737317	    -15.71739751	     -2.50592077	     62.20189050	    -13.61563134	     -1.66210175	     76.37951182	     -6.02340049	      0.00000000	     34.32000000
      2.06000000	     -0.01599103	     -5.49009006	    -10.73338418	      0.00000000	      0.00000000	      0.00000000	    -43.91796278	      9.89435031	    -15.41221594	     -2.36773323	     62.68018741	    -13.67410211	     -1.65737711	     76.86209075	     -5.92562019	      0.00000000	     34.32000000
      2.07000000	     -0.02665937	     -5.47518951	    -10.73763837	      0.00000000	      0.00000000	      0.00000000	    -43.96865043	     10.09626127	    -15.28963880	     -2.23578490	     63.02196564	    -13.75903016	     -1.65974358	     77.22856133	     -5.93429261	      0.00000000	     34.32000000
      2.08000000	     -0.02596238	     -5.49533100	    -10.75596647	      0.00000000	      0.00000000	      0.00000000	    -43.98446314	     10.25543097	    -15.09020566	     -2.12922197	     63.37312281	    -13.80903515	     -1.62969977	     77.59565073	     -5.95093793	      0.00000000	     34.32000000
      2.09000000	     -0.05412115	     -5.66174746	    -10.80615566	      0.00000000	      0.00000000	      0.00000000	    -43.87484806	     10.27141212	    -14.70464849	     -2.10874899	     63.64775266	    -13.74242757	     -1.64891165	     77.96495272	     -5.90046466	      0.00000000	     34.32000000
      2.10000000	     -0.18962079	     -5.65736702	    -10.83533109	      0.00000000	      0.00000000	      0.00000000	    -43.87752408	     10.26174228	    -14.65554900	     -2.11487588	     63.71061042	    -13.74086278	     -1.61100412	     78.06588873	     -5.90556617	      0.00000000	     34.32000000
      2.11000000	     -0.11120176	     -6.26013953	    -10.91107131	      0.00000000	      0.00000000	      0.00000000	    -43.35077992	      9.94684643	    -13.40713080	     -2.28251539	     64.09626344	    -13.32840495	     -2.09182050	     78.92756382	     -5.92671903	      0.00000000	     34.32000000
      2.12000000	     -0.12532868	     -6.48645301	    -11.03061713	      0.00000000	      0.00000000	      0.00000000	    -43.29777489	      9.80216047	    -13.00452972	     -2.37226402	     64.43439903	    -13.25277536	     -2.26282014	     79.20067800	     -6.15009972	      0.00000000	     34.32000000
      2.13000000	     -0.33153833	     -6.52471536	    -11.08177896	      0.00000000	      0.00000000	      0.00000000	    -43.32438245	      9.83891220	    -13.00838660	     -2.34886624	     64.49795400	    -13.27756262	     -2.22380288	     79.31703307	     -6.15324497	      0.00000000	     34.32000000
      2.14000000	     -0.21519416	     -6.31225188	    -11.05785508	      0.00000000	      0.00000000	      0.00000000	    -43.73955707	     10.14037421	    -13.55448062	     -2.17543142	     64.76758106	    -13.60770013	     -1.50896519	     79.38024527	     -5.86845820	      0.00000000	     34.32000000
